<svg xmlns="http://www.w3.org/2000/svg" xmlns:xlink="http://www.w3.org/1999/xlink" width="436pt" height="332pt" viewBox="0 0 436.39 332"><g id="graph0" class="graph" transform="scale(1 1) rotate(0) translate(4 328)"><title>%3</title><polygon fill="#fff" stroke="transparent" points="-4 4 -4 -328 432.387 -328 432.387 4 -4 4"/><g id="node1" class="node"><title>4606668640</title><ellipse cx="102.942" cy="-90" fill="none" stroke="#000" rx="102.883" ry="18"/><text x="102.942" y="-85.8" fill="#000" font-family="Times,serif" font-size="14" text-anchor="middle">push_xcom_for_branch_b</text></g><g id="node7" class="node"><title>4340724568</title><ellipse cx="213.942" cy="-18" fill="none" stroke="#000" rx="27" ry="18"/><text x="213.942" y="-13.8" fill="#000" font-family="Times,serif" font-size="14" text-anchor="middle">join</text></g><g id="edge1" class="edge"><title>4606668640-&gt;4340724568</title><path fill="none" stroke="#000" d="M129.8116,-72.5708C146.7493,-61.5842 168.586,-47.4199 185.7671,-36.2753"/><polygon fill="#000" stroke="#000" points="187.792 -39.134 194.277 -30.756 183.982 -33.261 187.792 -39.134"/></g><g id="node2" class="node"><title>4607053952</title><ellipse cx="213.942" cy="-306" fill="none" stroke="#000" rx="57.056" ry="18"/><text x="213.942" y="-301.8" fill="#000" font-family="Times,serif" font-size="14" text-anchor="middle">run_this_first</text></g><g id="node3" class="node"><title>4526848040</title><ellipse cx="213.942" cy="-234" fill="none" stroke="#000" rx="45.435" ry="18"/><text x="213.942" y="-229.8" fill="#000" font-family="Times,serif" font-size="14" text-anchor="middle">branching</text></g><g id="edge7" class="edge"><title>4607053952-&gt;4526848040</title><path fill="none" stroke="#000" d="M213.9416,-287.8314C213.9416,-280.131 213.9416,-270.9743 213.9416,-262.4166"/><polygon fill="#000" stroke="#000" points="217.442 -262.413 213.942 -252.413 210.442 -262.413 217.442 -262.413"/></g><g id="node5" class="node"><title>4526847480</title><ellipse cx="161.942" cy="-162" fill="none" stroke="#000" rx="43.022" ry="18"/><text x="161.942" y="-157.8" fill="#000" font-family="Times,serif" font-size="14" text-anchor="middle">branch_b</text></g><g id="edge4" class="edge"><title>4526848040-&gt;4526847480</title><path fill="none" stroke="#000" d="M201.3539,-216.5708C195.0305,-207.8153 187.2496,-197.0418 180.2765,-187.3867"/><polygon fill="#000" stroke="#000" points="183.106 -185.326 174.413 -179.269 177.431 -189.425 183.106 -185.326"/></g><g id="node6" class="node"><title>4607056696</title><ellipse cx="295.942" cy="-162" fill="none" stroke="#000" rx="42.528" ry="18"/><text x="295.942" y="-157.8" fill="#000" font-family="Times,serif" font-size="14" text-anchor="middle">branch_a</text></g><g id="edge6" class="edge"><title>4526848040-&gt;4607056696</title><path fill="none" stroke="#000" d="M232.9602,-217.3008C243.9047,-207.6909 257.8162,-195.476 269.7795,-184.9717"/><polygon fill="#000" stroke="#000" points="272.104 -187.589 277.309 -178.36 267.485 -182.328 272.104 -187.589"/></g><g id="node4" class="node"><title>4606429224</title><ellipse cx="325.942" cy="-90" fill="none" stroke="#000" rx="102.39" ry="18"/><text x="325.942" y="-85.8" fill="#000" font-family="Times,serif" font-size="14" text-anchor="middle">push_xcom_for_branch_a</text></g><g id="edge2" class="edge"><title>4606429224-&gt;4340724568</title><path fill="none" stroke="#000" d="M298.8295,-72.5708C281.629,-61.5133 259.4214,-47.237 242.035,-36.06"/><polygon fill="#000" stroke="#000" points="243.739 -32.995 233.435 -30.531 239.954 -38.883 243.739 -32.995"/></g><g id="edge3" class="edge"><title>4526847480-&gt;4606668640</title><path fill="none" stroke="#000" d="M147.9594,-144.937C140.8247,-136.2302 131.997,-125.4574 124.0541,-115.7644"/><polygon fill="#000" stroke="#000" points="126.692 -113.462 117.647 -107.945 121.278 -117.898 126.692 -113.462"/></g><g id="edge5" class="edge"><title>4607056696-&gt;4606429224</title><path fill="none" stroke="#000" d="M303.3574,-144.2022C306.7213,-136.1287 310.7759,-126.3976 314.5158,-117.422"/><polygon fill="#000" stroke="#000" points="317.787 -118.67 318.403 -108.093 311.326 -115.978 317.787 -118.67"/></g></g></svg>