<svg xmlns="http://www.w3.org/2000/svg" xmlns:xlink="http://www.w3.org/1999/xlink" width="281pt" height="388pt" viewBox="0 0 280.53 388"><g id="graph0" class="graph" transform="scale(1 1) rotate(0) translate(4 384)"><title>%3</title><polygon fill="#fff" stroke="transparent" points="-4 4 -4 -384 276.534 -384 276.534 4 -4 4"/><g id="node1" class="node"><title>4713769000</title><ellipse cx="51.353" cy="-276" fill="none" stroke="#000" rx="51.207" ry="18"/><text x="51.353" y="-271.8" fill="#000" font-family="Times,serif" font-size="14" text-anchor="middle">retrieve_url</text></g><g id="node2" class="node"><title>4713769672</title><ellipse cx="138.353" cy="-190" fill="none" stroke="#000" rx="77.759" ry="18"/><text x="138.353" y="-185.8" fill="#000" font-family="Times,serif" font-size="14" text-anchor="middle">create_episode_list</text></g><g id="edge4" class="edge"><title>4713769000-&gt;4713769672</title><path fill="none" stroke="#000" d="M52.1137,-257.6648C53.3953,-247.3865 56.4798,-234.8865 63.6912,-226 69.0355,-219.4144 75.8763,-213.953 83.2414,-209.4472"/><polygon fill="#000" stroke="#000" points="84.998 -212.476 92.07 -204.587 81.622 -206.344 84.998 -212.476"/><text x="94.684" y="-228.8" fill="#000" font-family="Times,serif" font-size="14" text-anchor="middle">main_html</text></g><g id="node6" class="node"><title>4713770232</title><polygon fill="none" stroke="#000" points="200.545 -122 76.162 -122 76.162 -86 200.545 -86 200.545 -122"/><text x="138.353" y="-99.8" fill="#000" font-family="Times,serif" font-size="14" text-anchor="middle">retrieve_url &lt;map&gt;</text></g><g id="edge2" class="edge"><title>4713769672-&gt;4713770232</title><path fill="none" stroke="#000" stroke-dasharray="5 2" d="M138.3533,-171.7616C138.3533,-160.3597 138.3533,-145.4342 138.3533,-132.494"/><polygon fill="#000" stroke="#000" points="141.853 -132.212 138.353 -122.212 134.853 -132.212 141.853 -132.212"/><text x="146.129" y="-142.8" fill="#000" font-family="Times,serif" font-size="14" text-anchor="middle">url</text></g><g id="node3" class="node"><title>4713768664</title><ellipse cx="94.353" cy="-362" fill="none" stroke="#000" rx="27" ry="18"/><text x="94.353" y="-357.8" fill="#000" font-family="Times,serif" font-size="14" text-anchor="middle">url</text></g><g id="edge1" class="edge"><title>4713768664-&gt;4713769000</title><path fill="none" stroke="#000" d="M85.6516,-344.5966C79.7274,-332.7482 71.7648,-316.8231 65.0031,-303.2996"/><polygon fill="#000" stroke="#000" points="67.941 -301.349 60.338 -293.969 61.68 -304.479 67.941 -301.349"/><text x="84.129" y="-314.8" fill="#000" font-family="Times,serif" font-size="14" text-anchor="middle">url</text></g><g id="edge5" class="edge"><title>4713768664-&gt;4713769672</title><path fill="none" stroke="#000" d="M98.8963,-344.2408C106.5503,-314.3208 122.072,-253.6451 131.2002,-217.9623"/><polygon fill="#000" stroke="#000" points="134.615 -218.735 133.703 -208.179 127.834 -217 134.615 -218.735"/><text x="145.067" y="-271.8" fill="#000" font-family="Times,serif" font-size="14" text-anchor="middle">base_url</text></g><g id="node4" class="node"><title>4713769392</title><polygon fill="none" stroke="#000" points="213.707 -36 62.999 -36 62.999 0 213.707 0 213.707 -36"/><text x="138.353" y="-13.8" fill="#000" font-family="Times,serif" font-size="14" text-anchor="middle">scrape_dialogue &lt;map&gt;</text></g><g id="node5" class="node"><title>4713768888</title><ellipse cx="238.353" cy="-276" fill="none" stroke="#000" rx="34.361" ry="18"/><text x="238.353" y="-271.8" fill="#000" font-family="Times,serif" font-size="14" text-anchor="middle">bypass</text></g><g id="edge3" class="edge"><title>4713768888-&gt;4713769672</title><path fill="none" stroke="#000" d="M220.4753,-260.6249C205.4703,-247.7206 183.7721,-229.0602 166.4474,-214.1609"/><polygon fill="#000" stroke="#000" points="168.699 -211.481 158.835 -207.614 164.135 -216.788 168.699 -211.481"/><text x="212.409" y="-228.8" fill="#000" font-family="Times,serif" font-size="14" text-anchor="middle">bypass</text></g><g id="edge6" class="edge"><title>4713770232-&gt;4713769392</title><path fill="none" stroke="#000" stroke-dasharray="5 2" d="M138.3533,-85.7616C138.3533,-74.3597 138.3533,-59.4342 138.3533,-46.494"/><polygon fill="#000" stroke="#000" points="141.853 -46.212 138.353 -36.212 134.853 -46.212 141.853 -46.212"/><text x="176.071" y="-56.8" fill="#000" font-family="Times,serif" font-size="14" text-anchor="middle">episode_html</text></g></g></svg>