<svg xmlns="http://www.w3.org/2000/svg" xmlns:xlink="http://www.w3.org/1999/xlink" width="452" height="560pt" viewBox="0 0 339.36 560"><g id="graph0" class="graph" transform="scale(1 1) rotate(0) translate(4 556)"><title>%3</title><polygon fill="#fff" stroke="transparent" points="-4 4 -4 -556 335.365 -556 335.365 4 -4 4"/><g id="node1" class="node"><title>4582260128</title><ellipse cx="209.937" cy="-448" fill="none" stroke="#000" rx="51.207" ry="18"/><text x="209.937" y="-443.8" fill="#000" font-family="Times,serif" font-size="14" text-anchor="middle">retrieve_url</text></g><g id="node6" class="node"><title>4653053096</title><ellipse cx="209.937" cy="-362" fill="none" stroke="#000" rx="77.759" ry="18"/><text x="209.937" y="-357.8" fill="#000" font-family="Times,serif" font-size="14" text-anchor="middle">create_episode_list</text></g><g id="edge5" class="edge"><title>4582260128-&gt;4653053096</title><path fill="none" stroke="#000" d="M209.937,-429.7616C209.937,-418.3597 209.937,-403.4342 209.937,-390.494"/><polygon fill="#000" stroke="#000" points="213.437 -390.212 209.937 -380.212 206.437 -390.212 213.437 -390.212"/><text x="240.268" y="-400.8" fill="#000" font-family="Times,serif" font-size="14" text-anchor="middle">main_html</text></g><g id="node2" class="node"><title>4582259680</title><ellipse cx="105.937" cy="-448" fill="none" stroke="#000" rx="34.361" ry="18"/><text x="105.937" y="-443.8" fill="#000" font-family="Times,serif" font-size="14" text-anchor="middle">bypass</text></g><g id="edge8" class="edge"><title>4582259680-&gt;4653053096</title><path fill="none" stroke="#000" d="M124.5301,-432.6249C140.1353,-419.7206 162.7015,-401.0602 180.7192,-386.1609"/><polygon fill="#000" stroke="#000" points="183.16 -388.684 188.636 -379.614 178.699 -383.29 183.16 -388.684"/><text x="183.992" y="-400.8" fill="#000" font-family="Times,serif" font-size="14" text-anchor="middle">bypass</text></g><g id="node3" class="node"><title>4653054272</title><polygon fill="none" stroke="#000" points="300.108 -122 119.766 -122 119.766 -86 300.108 -86 300.108 -122"/><text x="209.937" y="-99.8" fill="#000" font-family="Times,serif" font-size="14" text-anchor="middle">create_episode_script &lt;map&gt;</text></g><g id="node7" class="node"><title>4653052648</title><polygon fill="none" stroke="#000" points="139.811 -36 .063 -36 .063 0 139.811 0 139.811 -36"/><text x="69.937" y="-13.8" fill="#000" font-family="Times,serif" font-size="14" text-anchor="middle">Insert Episode &lt;map&gt;</text></g><g id="edge3" class="edge"><title>4653054272-&gt;4653052648</title><path fill="none" stroke="#000" stroke-dasharray="5 2" d="M180.5884,-85.9716C159.4947,-73.014 130.8642,-55.4267 108.0112,-41.3884"/><polygon fill="#000" stroke="#000" points="109.6 -38.257 99.247 -36.005 105.936 -44.221 109.6 -38.257"/><text x="164.489" y="-56.8" fill="#000" font-family="Times,serif" font-size="14" text-anchor="middle">script</text></g><g id="node4" class="node"><title>4653053768</title><polygon fill="none" stroke="#000" points="272.129 -294 147.745 -294 147.745 -258 272.129 -258 272.129 -294"/><text x="209.937" y="-271.8" fill="#000" font-family="Times,serif" font-size="14" text-anchor="middle">retrieve_url &lt;map&gt;</text></g><g id="node8" class="node"><title>4582259568</title><polygon fill="none" stroke="#000" points="285.291 -208 134.583 -208 134.583 -172 285.291 -172 285.291 -208"/><text x="209.937" y="-185.8" fill="#000" font-family="Times,serif" font-size="14" text-anchor="middle">scrape_dialogue &lt;map&gt;</text></g><g id="edge7" class="edge"><title>4653053768-&gt;4582259568</title><path fill="none" stroke="#000" stroke-dasharray="5 2" d="M209.937,-257.7616C209.937,-246.3597 209.937,-231.4342 209.937,-218.494"/><polygon fill="#000" stroke="#000" points="213.437 -218.212 209.937 -208.212 206.437 -218.212 213.437 -218.212"/><text x="247.654" y="-228.8" fill="#000" font-family="Times,serif" font-size="14" text-anchor="middle">episode_html</text></g><g id="node5" class="node"><title>4652813448</title><ellipse cx="252.937" cy="-534" fill="none" stroke="#000" rx="27" ry="18"/><text x="252.937" y="-529.8" fill="#000" font-family="Times,serif" font-size="14" text-anchor="middle">url</text></g><g id="edge4" class="edge"><title>4652813448-&gt;4582260128</title><path fill="none" stroke="#000" d="M244.2353,-516.5966C238.3111,-504.7482 230.3485,-488.8231 223.5868,-475.2996"/><polygon fill="#000" stroke="#000" points="226.524 -473.349 218.922 -465.969 220.263 -476.479 226.524 -473.349"/><text x="242.713" y="-486.8" fill="#000" font-family="Times,serif" font-size="14" text-anchor="middle">url</text></g><g id="edge9" class="edge"><title>4652813448-&gt;4653053096</title><path fill="none" stroke="#000" d="M262.4809,-516.7754C276.1398,-489.5854 297.2801,-435.9157 274.937,-398 271.4608,-392.101 266.6319,-387.1006 261.1606,-382.8797"/><polygon fill="#000" stroke="#000" points="263.02 -379.912 252.768 -377.24 259.115 -385.722 263.02 -379.912"/><text x="307.651" y="-443.8" fill="#000" font-family="Times,serif" font-size="14" text-anchor="middle">base_url</text></g><g id="edge2" class="edge"><title>4653053096-&gt;4653053768</title><path fill="none" stroke="#000" stroke-dasharray="5 2" d="M209.937,-343.7616C209.937,-332.3597 209.937,-317.4342 209.937,-304.494"/><polygon fill="#000" stroke="#000" points="213.437 -304.212 209.937 -294.212 206.437 -304.212 213.437 -304.212"/><text x="217.713" y="-314.8" fill="#000" font-family="Times,serif" font-size="14" text-anchor="middle">url</text></g><g id="edge1" class="edge"><title>4582259568-&gt;4653054272</title><path fill="none" stroke="#000" stroke-dasharray="5 2" d="M209.937,-171.7616C209.937,-160.3597 209.937,-145.4342 209.937,-132.494"/><polygon fill="#000" stroke="#000" points="213.437 -132.212 209.937 -122.212 206.437 -132.212 213.437 -132.212"/><text x="231.32" y="-142.8" fill="#000" font-family="Times,serif" font-size="14" text-anchor="middle">episode</text></g><g id="node9" class="node"><title>4652965616</title><ellipse cx="53.937" cy="-104" fill="none" stroke="#000" rx="47.858" ry="18"/><text x="53.937" y="-99.8" fill="#000" font-family="Times,serif" font-size="14" text-anchor="middle">Create DB</text></g><g id="edge6" class="edge"><title>4652965616-&gt;4653052648</title><path fill="none" stroke="#000" d="M57.3302,-85.7616C59.4727,-74.2456 62.2839,-59.1353 64.7079,-46.1064"/><polygon fill="#000" stroke="#000" points="68.16 -46.684 66.549 -36.212 61.279 -45.403 68.16 -46.684"/></g></g></svg>