<svg xmlns="http://www.w3.org/2000/svg" xmlns:xlink="http://www.w3.org/1999/xlink" width="385pt" height="289pt" viewBox="0 0 384.94 289"><g id="graph0" class="graph" transform="scale(1 1) rotate(0) translate(4 285)"><title>%3</title><polygon fill="#fff" stroke="transparent" points="-4 4 -4 -285 380.935 -285 380.935 4 -4 4"/><g id="node1" class="node"><title>4726580224</title><ellipse cx="193.968" cy="-177" fill="none" stroke="#000" rx="27" ry="18"/><text x="193.968" y="-172.8" fill="#000" font-family="Times,serif" font-size="14" text-anchor="middle">Add</text></g><g id="node3" class="node"><title>4726820992</title><ellipse cx="78.968" cy="-91" fill="none" stroke="#000" rx="78.935" ry="18"/><text x="78.968" y="-86.8" fill="#000" font-family="Times,serif" font-size="14" text-anchor="middle">CompareValue: &quot;1&quot;</text></g><g id="edge2" class="edge"><title>4726580224-&gt;4726820992</title><path fill="none" stroke="#000" d="M175.9988,-163.5625C158.4875,-150.4671 131.4953,-130.2817 110.4215,-114.5221"/><polygon fill="#000" stroke="#000" points="112.483 -111.693 102.378 -108.507 108.29 -117.299 112.483 -111.693"/><text x="159.126" y="-129.8" fill="#000" font-family="Times,serif" font-size="14" text-anchor="middle">value</text></g><g id="node4" class="node"><title>4726580168</title><ellipse cx="181.968" cy="-18" fill="none" stroke="#000" rx="27" ry="18"/><text x="181.968" y="-13.8" fill="#000" font-family="Times,serif" font-size="14" text-anchor="middle">Div</text></g><g id="edge7" class="edge"><title>4726580224-&gt;4726580168</title><path fill="none" stroke="#000" d="M192.591,-158.7607C190.5113,-131.2051 186.5513,-78.735 184.0975,-46.2226"/><polygon fill="#000" stroke="#000" points="187.571 -45.735 183.328 -36.027 180.591 -46.262 187.571 -45.735"/><text x="192.468" y="-86.8" fill="#000" font-family="Times,serif" font-size="14" text-anchor="middle">y</text></g><g id="node6" class="node"><title>4726718416</title><ellipse cx="297.967" cy="-91" fill="none" stroke="#000" rx="78.935" ry="18"/><text x="297.967" y="-86.8" fill="#000" font-family="Times,serif" font-size="14" text-anchor="middle">CompareValue: &quot;0&quot;</text></g><g id="edge6" class="edge"><title>4726580224-&gt;4726718416</title><path fill="none" stroke="#000" d="M211.141,-162.7988C226.821,-149.8328 250.3197,-130.4011 268.9183,-115.0215"/><polygon fill="#000" stroke="#000" points="271.336 -117.564 276.812 -108.494 266.875 -112.169 271.336 -117.564"/><text x="267.126" y="-129.8" fill="#000" font-family="Times,serif" font-size="14" text-anchor="middle">value</text></g><g id="node2" class="node"><title>4726580448</title><ellipse cx="157.968" cy="-263" fill="none" stroke="#000" rx="27" ry="18"/><text x="157.968" y="-258.8" fill="#000" font-family="Times,serif" font-size="14" text-anchor="middle">y</text></g><g id="edge1" class="edge"><title>4726580448-&gt;4726580224</title><path fill="none" stroke="#000" d="M165.2527,-245.5966C170.2786,-233.5902 177.0569,-217.3977 182.7657,-203.76"/><polygon fill="#000" stroke="#000" points="186.06 -204.953 186.693 -194.377 179.603 -202.25 186.06 -204.953"/><text x="182.468" y="-215.8" fill="#000" font-family="Times,serif" font-size="14" text-anchor="middle">y</text></g><g id="edge3" class="edge"><title>4726820992-&gt;4726580168</title><path fill="none" stroke="#000" d="M103.3771,-73.7C118.8369,-62.7431 138.8498,-48.5592 154.8109,-37.2469"/><polygon fill="#000" stroke="#000" points="157.072 -39.934 163.207 -31.297 153.024 -34.223 157.072 -39.934"/></g><g id="node5" class="node"><title>4470668592</title><ellipse cx="229.968" cy="-263" fill="none" stroke="#000" rx="27" ry="18"/><text x="229.968" y="-258.8" fill="#000" font-family="Times,serif" font-size="14" text-anchor="middle">x</text></g><g id="edge4" class="edge"><title>4470668592-&gt;4726580224</title><path fill="none" stroke="#000" d="M222.6824,-245.5966C217.6565,-233.5902 210.8782,-217.3977 205.1694,-203.76"/><polygon fill="#000" stroke="#000" points="208.332 -202.25 201.242 -194.377 201.875 -204.953 208.332 -202.25"/><text x="217.468" y="-215.8" fill="#000" font-family="Times,serif" font-size="14" text-anchor="middle">x</text></g><g id="node7" class="node"><title>4726580056</title><ellipse cx="297.967" cy="-18" fill="none" stroke="#000" rx="53.137" ry="18"/><text x="297.967" y="-13.8" fill="#000" font-family="Times,serif" font-size="14" text-anchor="middle">handle_zero</text></g><g id="edge5" class="edge"><title>4726718416-&gt;4726580056</title><path fill="none" stroke="#000" d="M297.9675,-72.9551C297.9675,-64.8828 297.9675,-55.1764 297.9675,-46.1817"/><polygon fill="#000" stroke="#000" points="301.468 -46.09 297.967 -36.09 294.468 -46.09 301.468 -46.09"/></g></g></svg>