<svg xmlns="http://www.w3.org/2000/svg" xmlns:xlink="http://www.w3.org/1999/xlink" width="134pt" height="130pt" viewBox="0 0 134 130"><g id="graph0" class="graph" transform="scale(1 1) rotate(0) translate(4 126)"><title>%3</title><polygon fill="#fff" stroke="none" points="-4 4 -4 -126 130 -126 130 4 -4 4"/><g id="node1" class="node"><title>4396544296</title><ellipse cx="63" cy="-18" fill="none" stroke="#000" rx="27" ry="18"/><text x="63" y="-13.8" font-family="Times,serif" font-size="14" text-anchor="middle">Add</text></g><g id="node2" class="node"><title>4338082088</title><ellipse cx="27" cy="-104" fill="none" stroke="#000" rx="27" ry="18"/><text x="27" y="-99.8" font-family="Times,serif" font-size="14" text-anchor="middle">x</text></g><g id="edge2" class="edge"><title>4338082088-&gt;4396544296</title><path fill="none" stroke="#000" d="M34.1124,-86.4043C39.1911,-74.5542 46.1219,-58.3822 51.9217,-44.8493"/><polygon fill="#000" stroke="#000" points="55.18 -46.131 55.902 -35.561 48.746 -43.374 55.18 -46.131"/><text x="51.5" y="-56.8" font-family="Times,serif" font-size="14" text-anchor="middle">x</text></g><g id="node3" class="node"><title>4338082144</title><ellipse cx="99" cy="-104" fill="none" stroke="#000" rx="27" ry="18"/><text x="99" y="-99.8" font-family="Times,serif" font-size="14" text-anchor="middle">y</text></g><g id="edge1" class="edge"><title>4338082144-&gt;4396544296</title><path fill="none" stroke="#000" d="M91.8876,-86.4043C86.8089,-74.5542 79.8781,-58.3822 74.0783,-44.8493"/><polygon fill="#000" stroke="#000" points="77.254 -43.374 70.098 -35.561 70.82 -46.131 77.254 -43.374"/><text x="86.5" y="-56.8" font-family="Times,serif" font-size="14" text-anchor="middle">y</text></g></g></svg>