<svg xmlns="http://www.w3.org/2000/svg" xmlns:xlink="http://www.w3.org/1999/xlink" width="436pt" height="349pt" viewBox="0 0 436.39 349"><g id="graph0" class="graph" transform="scale(1 1) rotate(0) translate(4 345)"><title>%3</title><polygon fill="#fff" stroke="transparent" points="-4 4 -4 -345 432.387 -345 432.387 4 -4 4"/><g id="node1" class="node"><title>4606668640</title><ellipse cx="102.942" cy="-104" fill="green" fill-opacity=".502" stroke="green" stroke-opacity=".502" rx="102.883" ry="18"/><text x="102.942" y="-99.8" fill="#000" font-family="Times,serif" font-size="14" text-anchor="middle">push_xcom_for_branch_b</text></g><g id="node7" class="node"><title>4607280688</title><ellipse cx="102.942" cy="-18" fill="green" fill-opacity=".502" stroke="green" stroke-opacity=".502" rx="50.264" ry="18"/><text x="102.942" y="-13.8" fill="#000" font-family="Times,serif" font-size="14" text-anchor="middle">print_value</text></g><g id="edge1" class="edge"><title>4606668640-&gt;4607280688</title><path fill="none" stroke="#000" d="M102.9416,-85.7616C102.9416,-74.3597 102.9416,-59.4342 102.9416,-46.494"/><polygon fill="#000" stroke="#000" points="106.442 -46.212 102.942 -36.212 99.442 -46.212 106.442 -46.212"/><text x="106.442" y="-56.8" fill="#000" font-family="Times,serif" font-size="14" text-anchor="middle">x</text></g><g id="node9" class="node"><title>4340724568</title><ellipse cx="214.942" cy="-18" fill="green" fill-opacity=".502" stroke="green" stroke-opacity=".502" rx="27" ry="18"/><text x="214.942" y="-13.8" fill="#000" font-family="Times,serif" font-size="14" text-anchor="middle">join</text></g><g id="edge2" class="edge"><title>4606668640-&gt;4340724568</title><path fill="none" stroke="#000" d="M125.8768,-86.3891C144.2737,-72.2628 170.0881,-52.4411 189.1918,-37.7722"/><polygon fill="#000" stroke="#000" points="191.386 -40.5 197.186 -31.634 187.123 -34.948 191.386 -40.5"/></g><g id="node2" class="node"><title>4607053952</title><ellipse cx="242.942" cy="-323" fill="green" fill-opacity=".502" stroke="green" stroke-opacity=".502" rx="57.056" ry="18"/><text x="242.942" y="-318.8" fill="#000" font-family="Times,serif" font-size="14" text-anchor="middle">run_this_first</text></g><g id="node3" class="node"><title>4526848040</title><ellipse cx="242.942" cy="-250" fill="green" fill-opacity=".502" stroke="green" stroke-opacity=".502" rx="45.435" ry="18"/><text x="242.942" y="-245.8" fill="#000" font-family="Times,serif" font-size="14" text-anchor="middle">branching</text></g><g id="edge9" class="edge"><title>4607053952-&gt;4526848040</title><path fill="none" stroke="#000" d="M242.9416,-304.9551C242.9416,-296.8828 242.9416,-287.1764 242.9416,-278.1817"/><polygon fill="#000" stroke="#000" points="246.442 -278.09 242.942 -268.09 239.442 -278.09 246.442 -278.09"/></g><g id="node5" class="node"><title>4526847480</title><ellipse cx="191.942" cy="-177" fill="green" fill-opacity=".502" stroke="green" stroke-opacity=".502" rx="43.022" ry="18"/><text x="191.942" y="-172.8" fill="#000" font-family="Times,serif" font-size="14" text-anchor="middle">branch_b</text></g><g id="edge5" class="edge"><title>4526848040-&gt;4526847480</title><path fill="none" stroke="#000" d="M230.5959,-232.3287C224.3942,-223.4517 216.7629,-212.5285 209.9239,-202.7393"/><polygon fill="#000" stroke="#000" points="212.77 -200.702 204.174 -194.508 207.032 -204.711 212.77 -200.702"/></g><g id="node8" class="node"><title>4607056696</title><ellipse cx="310.942" cy="-177" fill="#f0fff0" stroke="#f0fff0" rx="42.528" ry="18"/><text x="310.942" y="-172.8" fill="#000" font-family="Times,serif" font-size="14" text-anchor="middle">branch_a</text></g><g id="edge7" class="edge"><title>4526848040-&gt;4607056696</title><path fill="none" stroke="#000" d="M258.7131,-233.0688C267.4672,-223.671 278.5103,-211.8159 288.1849,-201.4301"/><polygon fill="#000" stroke="#000" points="291.001 -203.542 295.256 -193.839 285.879 -198.771 291.001 -203.542"/></g><g id="node4" class="node"><title>4606429224</title><ellipse cx="325.942" cy="-104" fill="#f0fff0" stroke="#f0fff0" rx="102.39" ry="18"/><text x="325.942" y="-99.8" fill="#000" font-family="Times,serif" font-size="14" text-anchor="middle">push_xcom_for_branch_a</text></g><g id="node6" class="node"><title>4607280464</title><ellipse cx="325.942" cy="-18" fill="green" fill-opacity=".502" stroke="green" stroke-opacity=".502" rx="50.264" ry="18"/><text x="325.942" y="-13.8" fill="#000" font-family="Times,serif" font-size="14" text-anchor="middle">print_value</text></g><g id="edge8" class="edge"><title>4606429224-&gt;4607280464</title><path fill="none" stroke="#000" d="M325.9416,-85.7616C325.9416,-74.3597 325.9416,-59.4342 325.9416,-46.494"/><polygon fill="#000" stroke="#000" points="329.442 -46.212 325.942 -36.212 322.442 -46.212 329.442 -46.212"/><text x="329.442" y="-56.8" fill="#000" font-family="Times,serif" font-size="14" text-anchor="middle">x</text></g><g id="edge3" class="edge"><title>4606429224-&gt;4340724568</title><path fill="none" stroke="#000" d="M303.2113,-86.3891C285.089,-72.3485 259.7045,-52.6811 240.8065,-38.0394"/><polygon fill="#000" stroke="#000" points="242.936 -35.262 232.887 -31.904 238.649 -40.795 242.936 -35.262"/></g><g id="edge4" class="edge"><title>4526847480-&gt;4606668640</title><path fill="none" stroke="#000" d="M172.1896,-160.7989C160.4847,-151.1982 145.4302,-138.8502 132.3494,-128.121"/><polygon fill="#000" stroke="#000" points="134.459 -125.325 124.507 -121.689 130.019 -130.737 134.459 -125.325"/></g><g id="edge6" class="edge"><title>4607056696-&gt;4606429224</title><path fill="none" stroke="#000" d="M314.6495,-158.9551C316.3262,-150.7951 318.346,-140.9652 320.2111,-131.8887"/><polygon fill="#000" stroke="#000" points="323.64 -132.59 322.224 -122.09 316.783 -131.181 323.64 -132.59"/></g></g></svg>