<svg xmlns="http://www.w3.org/2000/svg" xmlns:xlink="http://www.w3.org/1999/xlink" width="151pt" height="288" viewBox="0 0 151 216"><g id="graph0" class="graph" transform="scale(1 1) rotate(0) translate(4 212)"><title>%3</title><polygon fill="#fff" stroke="transparent" points="-4 4 -4 -212 146.998 -212 146.998 4 -4 4"/><g id="node1" class="node"><title>4712251688</title><ellipse cx="67.563" cy="-104" fill="none" stroke="#000" rx="51.207" ry="18"/><text x="67.563" y="-99.8" fill="#000" font-family="Times,serif" font-size="14" text-anchor="middle">retrieve_url</text></g><g id="node3" class="node"><title>4712253648</title><ellipse cx="67.563" cy="-18" fill="none" stroke="#000" rx="67.627" ry="18"/><text x="67.563" y="-13.8" fill="#000" font-family="Times,serif" font-size="14" text-anchor="middle">scrape_dialogue</text></g><g id="edge1" class="edge"><title>4712251688-&gt;4712253648</title><path fill="none" stroke="#000" d="M67.5634,-85.7616C67.5634,-74.3597 67.5634,-59.4342 67.5634,-46.494"/><polygon fill="#000" stroke="#000" points="71.064 -46.212 67.563 -36.212 64.064 -46.212 71.064 -46.212"/><text x="105.281" y="-56.8" fill="#000" font-family="Times,serif" font-size="14" text-anchor="middle">episode_html</text></g><g id="node2" class="node"><title>4712252528</title><ellipse cx="67.563" cy="-190" fill="none" stroke="#000" rx="27" ry="18"/><text x="67.563" y="-185.8" fill="#000" font-family="Times,serif" font-size="14" text-anchor="middle">url</text></g><g id="edge2" class="edge"><title>4712252528-&gt;4712251688</title><path fill="none" stroke="#000" d="M67.5634,-171.7616C67.5634,-160.3597 67.5634,-145.4342 67.5634,-132.494"/><polygon fill="#000" stroke="#000" points="71.064 -132.212 67.563 -122.212 64.064 -132.212 71.064 -132.212"/><text x="75.339" y="-142.8" fill="#000" font-family="Times,serif" font-size="14" text-anchor="middle">url</text></g></g></svg>