<svg xmlns="http://www.w3.org/2000/svg" xmlns:xlink="http://www.w3.org/1999/xlink" width="1304pt" height="260pt" viewBox="0 0 1303.54 260"><g id="graph0" class="graph" transform="scale(1 1) rotate(0) translate(4 256)"><title>%3</title><polygon fill="#fff" stroke="transparent" points="-4 4 -4 -256 1299.54 -256 1299.54 4 -4 4"/><g id="node1" class="node"><title>140460341385360</title><ellipse cx="507.397" cy="-234" fill="#696969" fill-opacity=".6" stroke="#696969" stroke-opacity=".6" rx="28.695" ry="18"/><text x="507.397" y="-230.3" fill="#000" font-family="Times,serif" font-size="14" text-anchor="middle">State</text></g><g id="node2" class="node"><title>140460341387264</title><ellipse cx="224.397" cy="-162" fill="#7ebdff" fill-opacity=".6" stroke="#7ebdff" stroke-opacity=".6" rx="40.094" ry="18"/><text x="224.397" y="-158.3" fill="#000" font-family="Times,serif" font-size="14" text-anchor="middle">Pending</text></g><g id="edge1" class="edge"><title>140460341385360-&gt;140460341387264</title><path fill="none" stroke="#000" d="M480.7728,-227.2264C432.2564,-214.883 328.9718,-188.6057 269.364,-173.4404"/><polygon fill="#000" stroke="#000" points="270.031 -169.999 259.476 -170.925 268.305 -176.782 270.031 -169.999"/></g><g id="node7" class="node"><title>140460341391840</title><ellipse cx="401.397" cy="-162" fill="#696969" fill-opacity=".6" stroke="#696969" stroke-opacity=".6" rx="51.991" ry="18"/><text x="401.397" y="-158.3" fill="#000" font-family="Times,serif" font-size="14" text-anchor="middle">_MetaState</text></g><g id="edge6" class="edge"><title>140460341385360-&gt;140460341391840</title><path fill="none" stroke="#000" d="M487.9547,-220.7941C472.7512,-210.4672 451.2891,-195.8891 433.54,-183.8331"/><polygon fill="#000" stroke="#000" points="435.408 -180.871 425.169 -178.147 431.474 -186.661 435.408 -180.871"/></g><g id="node11" class="node"><title>140460341400928</title><ellipse cx="538.397" cy="-162" fill="#3d67ff" fill-opacity=".6" stroke="#3d67ff" stroke-opacity=".6" rx="42.494" ry="18"/><text x="538.397" y="-158.3" fill="#000" font-family="Times,serif" font-size="14" text-anchor="middle">Running</text></g><g id="edge10" class="edge"><title>140460341385360-&gt;140460341400928</title><path fill="none" stroke="#000" d="M514.901,-216.5708C518.4652,-208.2927 522.8062,-198.2104 526.7824,-188.9752"/><polygon fill="#000" stroke="#000" points="530.006 -190.338 530.746 -179.769 523.577 -187.57 530.006 -190.338"/></g><g id="node13" class="node"><title>140460341404144</title><ellipse cx="790.397" cy="-162" fill="#003ccb" fill-opacity=".6" stroke="#003ccb" stroke-opacity=".6" rx="42.494" ry="18"/><text x="790.397" y="-158.3" fill="#000" font-family="Times,serif" font-size="14" text-anchor="middle">Finished</text></g><g id="edge12" class="edge"><title>140460341385360-&gt;140460341404144</title><path fill="none" stroke="#000" d="M534.0207,-227.2264C582.1469,-214.9823 684.1639,-189.0274 743.9829,-173.8085"/><polygon fill="#000" stroke="#000" points="745.094 -177.137 753.922 -171.28 743.368 -170.353 745.094 -177.137"/></g><g id="node3" class="node"><title>140460341388208</title><ellipse cx="131.397" cy="-90" fill="#ffab00" fill-opacity=".6" stroke="#ffab00" stroke-opacity=".6" rx="48.993" ry="18"/><text x="131.397" y="-86.3" fill="#000" font-family="Times,serif" font-size="14" text-anchor="middle">Scheduled</text></g><g id="edge2" class="edge"><title>140460341387264-&gt;140460341388208</title><path fill="none" stroke="#000" d="M204.2172,-146.3771C191.4451,-136.4891 174.723,-123.5429 160.5246,-112.5506"/><polygon fill="#000" stroke="#000" points="162.555 -109.696 152.505 -106.342 158.27 -115.231 162.555 -109.696"/></g><g id="node4" class="node"><title>140460341390096</title><ellipse cx="36.397" cy="-18" fill="#99a8e8" fill-opacity=".6" stroke="#99a8e8" stroke-opacity=".6" rx="36.294" ry="18"/><text x="36.397" y="-14.3" fill="#000" font-family="Times,serif" font-size="14" text-anchor="middle">Paused</text></g><g id="edge3" class="edge"><title>140460341388208-&gt;140460341390096</title><path fill="none" stroke="#000" d="M109.8398,-73.6621C96.4771,-63.5346 79.163,-50.4123 64.7023,-39.4526"/><polygon fill="#000" stroke="#000" points="66.653 -36.539 56.569 -33.289 62.425 -42.118 66.653 -36.539"/></g><g id="node5" class="node"><title>140460341397376</title><ellipse cx="131.397" cy="-18" fill="#f58c0c" fill-opacity=".6" stroke="#f58c0c" stroke-opacity=".6" rx="40.094" ry="18"/><text x="131.397" y="-14.3" fill="#000" font-family="Times,serif" font-size="14" text-anchor="middle">Resume</text></g><g id="edge4" class="edge"><title>140460341388208-&gt;140460341397376</title><path fill="none" stroke="#000" d="M131.3968,-71.8314C131.3968,-64.131 131.3968,-54.9743 131.3968,-46.4166"/><polygon fill="#000" stroke="#000" points="134.897 -46.413 131.397 -36.413 127.897 -46.413 134.897 -46.413"/></g><g id="node6" class="node"><title>140460341399056</title><ellipse cx="232.397" cy="-18" fill="#f66a0a" fill-opacity=".6" stroke="#f66a0a" stroke-opacity=".6" rx="42.494" ry="18"/><text x="232.397" y="-14.3" fill="#000" font-family="Times,serif" font-size="14" text-anchor="middle">Retrying</text></g><g id="edge5" class="edge"><title>140460341388208-&gt;140460341399056</title><path fill="none" stroke="#000" d="M154.0631,-73.8418C168.2943,-63.6968 186.814,-50.4946 202.273,-39.4744"/><polygon fill="#000" stroke="#000" points="204.389 -42.264 210.5 -33.61 200.325 -36.565 204.389 -42.264"/></g><g id="node8" class="node"><title>140460341392784</title><ellipse cx="254.397" cy="-90" fill="#eb0000" fill-opacity=".6" stroke="#eb0000" stroke-opacity=".6" rx="55.79" ry="18"/><text x="254.397" y="-86.3" fill="#000" font-family="Times,serif" font-size="14" text-anchor="middle">ClientFailed</text></g><g id="edge7" class="edge"><title>140460341391840-&gt;140460341392784</title><path fill="none" stroke="#000" d="M371.2944,-147.256C349.1223,-136.3962 318.7415,-121.5158 294.5091,-109.6469"/><polygon fill="#000" stroke="#000" points="295.738 -106.352 285.218 -105.096 292.659 -112.638 295.738 -106.352"/></g><g id="node9" class="node"><title>140460341394608</title><ellipse cx="376.397" cy="-90" fill="#ffdf5d" fill-opacity=".6" stroke="#ffdf5d" stroke-opacity=".6" rx="48.192" ry="18"/><text x="376.397" y="-86.3" fill="#000" font-family="Times,serif" font-size="14" text-anchor="middle">Submitted</text></g><g id="edge8" class="edge"><title>140460341391840-&gt;140460341394608</title><path fill="none" stroke="#000" d="M395.0882,-143.8314C392.3137,-135.8406 388.9946,-126.2819 385.9285,-117.4514"/><polygon fill="#000" stroke="#000" points="389.203 -116.212 382.617 -107.913 382.591 -118.508 389.203 -116.212"/></g><g id="node10" class="node"><title>140460341395552</title><ellipse cx="481.397" cy="-90" fill="#ffea7f" fill-opacity=".6" stroke="#ffea7f" stroke-opacity=".6" rx="38.993" ry="18"/><text x="481.397" y="-86.3" fill="#000" font-family="Times,serif" font-size="14" text-anchor="middle">Queued</text></g><g id="edge9" class="edge"><title>140460341391840-&gt;140460341395552</title><path fill="none" stroke="#000" d="M420.3557,-144.937C430.9424,-135.4089 444.2782,-123.4067 455.7825,-113.0529"/><polygon fill="#000" stroke="#000" points="458.307 -115.49 463.398 -106.199 453.624 -110.287 458.307 -115.49"/></g><g id="node12" class="node"><title>140460341402496</title><ellipse cx="588.397" cy="-90" fill="#E8E8E8" fill-opacity=".6" stroke="#E8E8E8" stroke-opacity=".6" rx="50.091" ry="18"/><text x="588.397" y="-86.3" fill="#000" font-family="Times,serif" font-size="14" text-anchor="middle">Cancelling</text></g><g id="edge11" class="edge"><title>140460341400928-&gt;140460341402496</title><path fill="none" stroke="#000" d="M550.5004,-144.5708C556.4749,-135.9675 563.8026,-125.4156 570.4168,-115.8911"/><polygon fill="#000" stroke="#000" points="573.402 -117.728 576.231 -107.518 567.653 -113.736 573.402 -117.728"/></g><g id="node14" class="node"><title>140460341405728</title><ellipse cx="694.397" cy="-90" fill="#003ccb" fill-opacity=".6" stroke="#003ccb" stroke-opacity=".6" rx="38.194" ry="18"/><text x="694.397" y="-86.3" fill="#000" font-family="Times,serif" font-size="14" text-anchor="middle">Looped</text></g><g id="edge13" class="edge"><title>140460341404144-&gt;140460341405728</title><path fill="none" stroke="#000" d="M769.0913,-146.0209C755.6078,-135.9082 738.0036,-122.7051 723.2724,-111.6568"/><polygon fill="#000" stroke="#000" points="725.084 -108.64 714.984 -105.44 720.884 -114.24 725.084 -108.64"/></g><g id="node15" class="node"><title>140460341407584</title><ellipse cx="790.397" cy="-90" fill="#28a745" fill-opacity=".6" stroke="#28a745" stroke-opacity=".6" rx="39.794" ry="18"/><text x="790.397" y="-86.3" fill="#000" font-family="Times,serif" font-size="14" text-anchor="middle">Success</text></g><g id="edge14" class="edge"><title>140460341404144-&gt;140460341407584</title><path fill="none" stroke="#000" d="M790.3968,-143.8314C790.3968,-136.131 790.3968,-126.9743 790.3968,-118.4166"/><polygon fill="#000" stroke="#000" points="793.897 -118.413 790.397 -108.413 786.897 -118.413 793.897 -118.413"/></g><g id="node19" class="node"><title>140460341411952</title><ellipse cx="894.397" cy="-90" fill="#bdbdbd" fill-opacity=".6" stroke="#bdbdbd" stroke-opacity=".6" rx="46.593" ry="18"/><text x="894.397" y="-86.3" fill="#000" font-family="Times,serif" font-size="14" text-anchor="middle">Cancelled</text></g><g id="edge18" class="edge"><title>140460341404144-&gt;140460341411952</title><path fill="none" stroke="#000" d="M812.7074,-146.5542C827.3115,-136.4436 846.6142,-123.0803 862.789,-111.8823"/><polygon fill="#000" stroke="#000" points="865.174 -114.488 871.404 -105.918 861.189 -108.733 865.174 -114.488"/></g><g id="node20" class="node"><title>140460341413568</title><ellipse cx="1032.397" cy="-90" fill="#eb0000" fill-opacity=".6" stroke="#eb0000" stroke-opacity=".6" rx="33.295" ry="18"/><text x="1032.397" y="-86.3" fill="#000" font-family="Times,serif" font-size="14" text-anchor="middle">Failed</text></g><g id="edge19" class="edge"><title>140460341404144-&gt;140460341413568</title><path fill="none" stroke="#000" d="M825.0695,-151.6842C869.6335,-138.4254 946.7953,-115.4682 993.3708,-101.611"/><polygon fill="#000" stroke="#000" points="994.518 -104.921 1003.104 -98.715 992.521 -98.212 994.518 -104.921"/></g><g id="node16" class="node"><title>140460341409120</title><ellipse cx="644.397" cy="-18" fill="#34d058" fill-opacity=".6" stroke="#34d058" stroke-opacity=".6" rx="37.894" ry="18"/><text x="644.397" y="-14.3" fill="#000" font-family="Times,serif" font-size="14" text-anchor="middle">Cached</text></g><g id="edge15" class="edge"><title>140460341407584-&gt;140460341409120</title><path fill="none" stroke="#000" d="M763.2775,-76.6261C739.7749,-65.0358 705.6023,-48.1835 679.9206,-35.5186"/><polygon fill="#000" stroke="#000" points="681.395 -32.343 670.879 -31.059 678.299 -38.622 681.395 -32.343"/></g><g id="node17" class="node"><title>140460341411008</title><ellipse cx="740.397" cy="-18" fill="#003ccb" fill-opacity=".6" stroke="#003ccb" stroke-opacity=".6" rx="40.094" ry="18"/><text x="740.397" y="-14.3" fill="#000" font-family="Times,serif" font-size="14" text-anchor="middle">Mapped</text></g><g id="edge16" class="edge"><title>140460341407584-&gt;140460341411008</title><path fill="none" stroke="#000" d="M778.2932,-72.5708C772.2744,-63.9038 764.8823,-53.2592 758.2298,-43.6796"/><polygon fill="#000" stroke="#000" points="760.968 -41.486 752.389 -35.269 755.218 -45.479 760.968 -41.486"/></g><g id="node18" class="node"><title>140460341419808</title><ellipse cx="839.397" cy="-18" fill="#62757f" fill-opacity=".6" stroke="#62757f" stroke-opacity=".6" rx="40.094" ry="18"/><text x="839.397" y="-14.3" fill="#000" font-family="Times,serif" font-size="14" text-anchor="middle">Skipped</text></g><g id="edge17" class="edge"><title>140460341407584-&gt;140460341419808</title><path fill="none" stroke="#000" d="M802.2583,-72.5708C808.1567,-63.9038 815.4009,-53.2592 821.9204,-43.6796"/><polygon fill="#000" stroke="#000" points="824.912 -45.505 827.644 -35.269 819.125 -41.567 824.912 -45.505"/></g><g id="node21" class="node"><title>140460341415104</title><ellipse cx="945.397" cy="-18" fill="#ff4e33" fill-opacity=".6" stroke="#ff4e33" stroke-opacity=".6" rx="48.192" ry="18"/><text x="945.397" y="-14.3" fill="#000" font-family="Times,serif" font-size="14" text-anchor="middle">TimedOut</text></g><g id="edge20" class="edge"><title>140460341413568-&gt;140460341415104</title><path fill="none" stroke="#000" d="M1013.9463,-74.7307C1002.1328,-64.9539 986.5802,-52.0828 973.2757,-41.0722"/><polygon fill="#000" stroke="#000" points="975.271 -38.181 965.336 -34.501 970.808 -43.573 975.271 -38.181"/></g><g id="node22" class="node"><title>140460341416672</title><ellipse cx="1072.397" cy="-18" fill="#ff5131" fill-opacity=".6" stroke="#ff5131" stroke-opacity=".6" rx="60.389" ry="18"/><text x="1072.397" y="-14.3" fill="#000" font-family="Times,serif" font-size="14" text-anchor="middle">TriggerFailed</text></g><g id="edge21" class="edge"><title>140460341413568-&gt;140460341416672</title><path fill="none" stroke="#000" d="M1042.0797,-72.5708C1046.727,-64.2055 1052.3979,-53.998 1057.5724,-44.6839"/><polygon fill="#000" stroke="#000" points="1060.728 -46.21 1062.525 -35.769 1054.609 -42.811 1060.728 -46.21"/></g><g id="node23" class="node"><title>140460341418224</title><ellipse cx="1223.397" cy="-18" fill="#ff5131" fill-opacity=".6" stroke="#ff5131" stroke-opacity=".6" rx="72.287" ry="18"/><text x="1223.397" y="-14.3" fill="#000" font-family="Times,serif" font-size="14" text-anchor="middle">ValidationFailed</text></g><g id="edge22" class="edge"><title>140460341413568-&gt;140460341418224</title><path fill="none" stroke="#000" d="M1059.7624,-79.6842C1089.4948,-68.4761 1137.6122,-50.3376 1173.9907,-36.6243"/><polygon fill="#000" stroke="#000" points="1175.318 -39.864 1183.44 -33.062 1172.849 -33.314 1175.318 -39.864"/></g></g></svg>