<svg xmlns="http://www.w3.org/2000/svg" xmlns:xlink="http://www.w3.org/1999/xlink" width="468" height="496" version="1.1" viewBox="0 0 468 496"><title>Cloud Illustration</title><desc>Created with Sketch.</desc><defs><linearGradient id="linearGradient-1" x1="0%" x2="100%" y1="49.345%" y2="50.655%"><stop offset="0%" stop-color="#004AFD"/><stop offset="100%" stop-color="#003BA8"/></linearGradient><linearGradient id="linearGradient-2" x1="124.129%" x2="0%" y1="22.853%" y2="77.147%"><stop offset="0%" stop-color="#0049F2"/><stop offset="100%" stop-color="#003BA8"/></linearGradient><linearGradient id="linearGradient-3" x1="0%" x2="100%" y1="46.329%" y2="53.671%"><stop offset="0%" stop-color="#004AFD"/><stop offset="100%" stop-color="#003BA8"/></linearGradient><linearGradient id="linearGradient-4" x1="9.07%" x2="90.93%" y1="0%" y2="100%"><stop offset="0%" stop-color="#0048F5"/><stop offset="100%" stop-color="#003DB1"/></linearGradient><linearGradient id="linearGradient-5" x1="100%" x2="-3.711%" y1="54.253%" y2="46.879%"><stop offset="0%" stop-color="#003CAB"/><stop offset="100%" stop-color="#0049F5"/></linearGradient><linearGradient id="linearGradient-6" x1="100%" x2="-3.711%" y1="61.135%" y2="41.831%"><stop offset="0%" stop-color="#003CAB"/><stop offset="100%" stop-color="#0049F5"/></linearGradient><linearGradient id="linearGradient-7" x1="74.112%" x2="36.364%" y1="63.337%" y2="11.862%"><stop offset="0%" stop-color="#A9BFD0"/><stop offset="100%" stop-color="#CDDBE5"/></linearGradient><linearGradient id="linearGradient-8" x1="0%" x2="115.266%" y1="0%" y2="0%"><stop offset="0%" stop-color="#F0F4F6"/><stop offset="100%" stop-color="#DEE5E9"/></linearGradient><linearGradient id="linearGradient-9" x1="0%" x2="115.266%" y1="0%" y2="0%"><stop offset="0%" stop-color="#F0F4F6"/><stop offset="100%" stop-color="#DEE5E9"/></linearGradient><linearGradient id="linearGradient-10" x1="0%" x2="115.266%" y1="0%" y2="0%"><stop offset="0%" stop-color="#F0F4F6"/><stop offset="100%" stop-color="#DEE5E9"/></linearGradient><linearGradient id="linearGradient-11" x1="0%" x2="115.266%" y1="0%" y2="0%"><stop offset="0%" stop-color="#F0F4F6"/><stop offset="100%" stop-color="#DEE5E9"/></linearGradient><linearGradient id="linearGradient-12" x1="0%" x2="115.266%" y1="0%" y2="0%"><stop offset="0%" stop-color="#F0F4F6"/><stop offset="100%" stop-color="#DEE5E9"/></linearGradient><linearGradient id="linearGradient-13" x1="0%" x2="115.266%" y1="0%" y2="0%"><stop offset="0%" stop-color="#F0F4F6"/><stop offset="100%" stop-color="#DEE5E9"/></linearGradient><linearGradient id="linearGradient-14" x1="0%" x2="115.266%" y1="0%" y2="0%"><stop offset="0%" stop-color="#F0F4F6"/><stop offset="100%" stop-color="#DEE5E9"/></linearGradient><linearGradient id="linearGradient-15" x1="0%" x2="100%" y1="48.469%" y2="51.531%"><stop offset="0%" stop-color="#003BA8"/><stop offset="100%" stop-color="#004AFD"/></linearGradient><linearGradient id="linearGradient-16" x1="0%" x2="100%" y1="45.369%" y2="54.631%"><stop offset="0%" stop-color="#003BA8"/><stop offset="100%" stop-color="#004AFD"/></linearGradient><linearGradient id="linearGradient-17" x1="0%" x2="100%" y1="49.294%" y2="50.706%"><stop offset="0%" stop-color="#EA3AC5"/><stop offset="100%" stop-color="#ED5B35"/></linearGradient></defs><g id="Design" fill="none" fill-rule="evenodd" stroke="none" stroke-width="1"><g id="PrefectCloud-HD-v4" transform="translate(-739.000000, -198.000000)"><g id="Cloud-Illustration" transform="translate(739.000000, 167.000000)"><path id="Path-23-Copy-9" stroke="#FFF" stroke-dasharray="1 6" d="M235,-82.5732984 L235,345.5019" transform="translate(235.000000, 131.500000) rotate(-90.000000) translate(-235.000000, -131.500000)"/><path id="Path-5" fill="#004EFF" d="M312,244 L312.901513,238.966045 C314.740919,231.655348 320.853853,228 331.240313,228 C341.626774,228 348.10194,231.655348 350.665809,238.966045 L352,244 L312,244 Z"/><path id="Rectangle-Copy-5" fill="#99DAFF" d="M0,48 L363,48 C365.209139,48 367,49.790861 367,52 L367,86 C367,88.209139 365.209139,90 363,90 L0,90 L0,48 Z"/><path id="Rectangle-Copy-5" fill="#2DDAFF" d="M1,51 L364,51 C366.209139,51 368,52.790861 368,55 L368,89 C368,91.209139 366.209139,93 364,93 L1,93 L1,51 Z"/><path id="Rectangle-Copy-5" stroke="url(#linearGradient-1)" stroke-width="3" d="M1.5,49.5 L1.5,88.5 L363,88.5 C364.380712,88.5 365.5,87.3807119 365.5,86 L365.5,52 C365.5,50.6192881 364.380712,49.5 363,49.5 L1.5,49.5 Z"/><rect id="Rectangle-Copy-8" width="57" height="42" x="376" y="361" fill="#CBF6FF" rx="4" transform="translate(404.500000, 382.000000) scale(-1, 1) translate(-404.500000, -382.000000)"/><rect id="Rectangle-Copy-8" width="54" height="39" x="376.5" y="359.5" stroke="url(#linearGradient-2)" stroke-width="3" rx="4" transform="translate(403.500000, 379.000000) scale(-1, 1) translate(-403.500000, -379.000000)"/><rect id="Rectangle-Copy-8" width="155" height="42" x="212" y="113" fill="#FF2637" rx="4"/><rect id="Rectangle-Copy-8" width="152" height="39" x="212.5" y="111.5" stroke="url(#linearGradient-3)" stroke-width="3" rx="4"/><rect id="Rectangle-Copy-9" width="38" height="42" x="193" y="175" fill="#0085FF" rx="4"/><rect id="Rectangle-Copy-9" width="35" height="39" x="193.5" y="173.5" stroke="url(#linearGradient-4)" stroke-width="3" rx="4"/><rect id="Rectangle-Copy-10" width="144" height="42" x="193" y="300" fill="#2DDAFF" rx="4"/><rect id="Rectangle-Copy-10" width="141" height="39" x="193.5" y="298.5" stroke="url(#linearGradient-5)" stroke-width="3" rx="4"/><rect id="Rectangle-Copy-13" width="90" height="42" x="170" y="238" fill="#2DDAFF" rx="4"/><rect id="Rectangle-Copy-13" width="86" height="39" x="171.5" y="236.5" stroke="url(#linearGradient-6)" stroke-width="3" rx="4"/><path id="Path-23-Copy-8" stroke="#FFF" stroke-dasharray="1 6" d="M20,33.4267016 L20,461.5019"/><path id="Path-4-Copy" stroke="#CBF6FF" stroke-linecap="round" stroke-width="8" d="M299,207.5 L212,207.5"/><path id="Path-4-Copy-3" stroke="#CBF6FF" stroke-linecap="round" stroke-width="8" d="M312,353.5 L225,353.5"/><path id="Path-4-Copy-2" stroke="#CBF6FF" stroke-linecap="round" stroke-width="8" d="M290.59844,191.5 L260.59844,191.5"/><path id="Path-4-Copy-4" stroke="#CBF6FF" stroke-linecap="round" stroke-width="8" d="M303.59844,337.5 L273.59844,337.5"/><g id="Group-9" transform="translate(106.000000, 141.000000)"><g id="Group-8"><g id="Group-5"><g id="Group-4" transform="translate(137.899048, 29.676355) rotate(27.000000) translate(-137.899048, -29.676355) translate(120.899048, 5.176355)"><polygon id="Path-77" fill="#99DAFF" points="15.764 46.358 17.956 39.608 28.14 41.836 27.14 48.97" transform="translate(21.951822, 44.288871) scale(-1, 1) translate(-21.951822, -44.288871)"/><g id="Group-2" transform="translate(17.000000, 23.683560) rotate(-13.000000) translate(-17.000000, -23.683560) translate(5.000000, 3.183560)"><path id="Path" fill="#95E6FC" d="M4.17671796,14.7922825 L4.17671796,2.22255266 C4.17671796,0.995070719 4.97106319,3.39909105e-16 6.56341393,0 C7.92839613,0 8.51625529,1.06155612 8.76713154,2.16791459 C8.9272856,2.87419025 8.95010991,10.3415904 8.95010991,10.8198671 C8.95010991,9.59238512 10.0186701,8.79567747 11.3368059,8.79567747 C12.6549417,8.79567747 13.7235019,9.79074819 13.7235019,11.0182301 L13.7235019,11.5738683 C13.7235019,10.3463863 14.792062,9.35131563 16.1101978,9.35131563 C17.4283336,9.35131563 18.4968938,10.3463863 18.4968938,11.5738683 L18.4968938,14.9076973 C18.4968938,13.6802153 19.565454,12.6851446 20.8835898,12.6851446 C22.2017256,12.6851446 23.2702858,13.6802153 23.2702858,14.9076973 L23.2702858,16.8607177 L23.2702858,31.831762 C22.9445539,37.6516446 19.0661729,40.561586 11.6351429,40.561586 C4.20411286,40.561586 0.325731896,37.6516446 0,31.831762 L0,25.0789257"/><path id="Path" fill="#95E6FC" d="M0,27.5072824 L2.30671491e-15,16.6307153 C2.30671491e-15,15.3886309 1.34975776e-13,13.1166642 8.07679751e-14,13.1166642 C0,13.1166642 1.55740274,12.7915938 3.02834427,13.625818 C4.49928581,14.4600422 4.74903791,16.0205507 4.74903791,16.6307153 L4.74903791,27.5072824"/><path id="Path-17" fill="#AACEFF" d="M8.31081634,8.50567036 L8.31081634,18.8262587"/><path id="Path-21" fill="#AACEFF" d="M13.0856642,9.46670518 L13.0856642,18.0429722"/><path id="Path-24" fill="#AACEFF" d="M17.8347022,11.3975012 L17.8347022,19.0591341"/></g><path id="Path" stroke="#06297B" stroke-width="3" d="M5.49739971,32.0964669 L5.49739971,21.4965876 C5.49739971,20.2861005 5.49739971,18.07193 5.49739971,18.07193 C5.49739971,18.07193 7.04460703,17.7551291 8.50591917,18.5681315 C9.9672313,19.381134 10.2153484,20.9019449 10.2153484,21.4965876 L10.2153484,32.0964669" transform="translate(7.856374, 25.053811) rotate(-13.000000) translate(-7.856374, -25.053811)"/><path id="Shape" stroke="#06297B" stroke-width="3" d="M9.40174276,17.58824 L9.40174276,5.19254147 C9.40174276,3.98205434 10.1868616,3.00076064 11.7607171,3.00076064 C13.109845,3.00076064 13.6908761,4.04761923 13.9388384,5.13865988 C14.0971323,5.83515697 14.1196915,13.199169 14.1196915,13.6708238 C14.1196915,12.4603366 15.1758403,11.6746596 16.4786658,11.6746596 C17.7814914,11.6746596 18.8376402,12.6559533 18.8376402,13.8664404 L18.8376402,14.4143856 C18.8376402,13.2038985 19.893789,12.2226048 21.1966146,12.2226048 C22.4994401,12.2226048 23.5555889,13.2038985 23.5555889,14.4143856 L23.5555889,17.7020569 C23.5555889,16.4915697 24.6117377,15.510276 25.9145633,15.510276 C27.2173888,15.510276 28.2735376,16.4915697 28.2735376,17.7020569 L28.2735376,19.6280372 L28.2735376,34.3918034 C27.9429283,39.6623933 25.600703,42.5599852 21.2468619,43.084579 M13.2585689,43.084579 C10.089212,42.7106571 5.59548613,40.1311082 5.27353763,34.3918034 L5.27353763,27.7324619" transform="translate(16.773538, 23.042670) rotate(-13.000000) translate(-16.773538, -23.042670)"/><path id="Path-17" stroke="#06297B" stroke-width="3" d="M13.0614575,13.6240657 L13.0614575,23.7774491" transform="translate(12.835967, 18.787014) rotate(-13.000000) translate(-12.835967, -18.787014)"/><path id="Path-21" stroke="#06297B" stroke-width="3" d="M17.6045987,13.1892284 L17.6045987,21.700562" transform="translate(17.805579, 17.443707) rotate(-13.000000) translate(-17.805579, -17.443707)"/><path id="Path-24" stroke="#06297B" stroke-width="3" d="M22.4982655,13.9189764 L22.4982655,21.567328" transform="translate(22.699246, 17.667283) rotate(-13.000000) translate(-22.699246, -17.667283)"/></g><path id="Path-81" fill="#FFF" d="M0,51.111391 L11,48.7549983 L25.3130061,96.9032186 L30.7534347,106.721706 L43.1995481,126.922991 L48.2877117,130.694252 L60.4928176,132.445483 C61.2110679,133.611698 63.3187619,135.34017 66.8158997,137.630898 C68.9495743,139.028518 74.8136286,142.437363 77.8766553,142.806787 C84.3000596,143.581497 90.9178965,142.309172 97.730166,138.989812 L116.906897,145.445657 C122.798471,148.062208 126.406228,152.848244 127.730166,159.803765 C129.054104,166.759287 132.810716,187.975031 139,223.450999 C138.70229,231.753694 134.945678,235.905041 127.730166,235.905041 C120.514653,235.905041 112.911879,235.639414 104.921843,235.108162 L104.433413,218.625683 L116.93423,214.54811 L110.115083,179.192624 C106.554788,192.819024 104.787144,203.02118 104.812152,209.799091 C104.885279,229.619087 106.905626,251.583159 110.873191,275.691309 L39.5,242.700388 C41.9663654,224.623063 43.1995481,210.065878 43.1995481,199.028832 C43.1995481,187.991787 42.4560055,175.384815 40.9689203,161.207917 C25.9702477,136.973203 16.6594921,120.796538 13.0366535,112.677923 C9.41381493,104.559308 5.06826376,84.0371303 0,51.111391 Z" transform="translate(69.500000, 162.223154) scale(-1, 1) translate(-69.500000, -162.223154)"/><path id="Path-76" stroke="#06297B" stroke-width="3" d="M128.109444,48.2613278 C129.754569,49.6978963 133.546376,50.7111644 139.484867,51.301132" opacity=".955" transform="translate(133.797156, 49.781230) scale(-1, 1) rotate(-25.000000) translate(-133.797156, -49.781230)"/><path id="Path-30" fill="#95E6FC" d="M50.2783037,120.803765 L71.7783037,120.803765 L70.5283037,136.601063 L79.5283037,138.989812 C75.929211,141.534462 73.7377712,142.806787 72.9539842,142.806787 C72.1701972,142.806787 67.9852254,142.806787 60.3990689,142.806787 C55.9205735,142.509383 51.9922297,141.024398 48.6140374,138.351833 C45.2358451,135.679268 42.7877773,133.710485 41.269834,132.445483 L51.5283037,132.445483 L50.2783037,120.803765 Z" transform="translate(60.399069, 131.805276) scale(-1, 1) translate(-60.399069, -131.805276)"/><path id="Path-29" fill="#99DAFF" d="M41.0138521,76.9941277 L84.0138521,69.9032186 L84.0138521,98.3333169 C83.3698618,103.950838 82.4379936,107.977061 81.2182476,110.411985 C79.9985015,112.846909 77.3470364,115.973934 73.2638521,119.793058 C68.547813,122.533165 64.9644797,123.903219 62.5138521,123.903219 C60.0632246,123.903219 56.4798912,122.533165 51.7638521,119.793058 C47.6180157,115.999703 44.92877,112.872679 43.696115,110.411985 C42.46346,107.951291 41.5693724,103.925069 41.0138521,98.3333169 L41.0138521,76.9941277 Z" transform="translate(62.513852, 96.903219) scale(-1, 1) rotate(-6.000000) translate(-62.513852, -96.903219)"/><path id="Path" fill-rule="nonzero" stroke="#06297B" stroke-width="3" d="M77.5836525,139.852959 C77.5836525,139.852959 72.4459762,143.868025 59.3744734,142.535989 C50.6601382,141.647965 44.5904119,138.287639 41.1652943,132.45501" transform="translate(59.374473, 137.630898) scale(-1, 1) translate(-59.374473, -137.630898)"/><path id="Shape" fill-rule="nonzero" stroke="#003483" stroke-width="3" d="M82.2628866,133.126421 L83.2601668,123.637934 C83.2601668,123.637934 83.0685182,123.555769 82.7854775,123.395578 C82.4987852,123.233321 82.120654,122.993011 82.120654,122.993011 C76.4388359,118.809641 73.0246944,112.817247 71.7620682,106.372597 L71.5095429,105.128893 C71.130755,103.432933 71.0044924,101.736972 71.0044924,100.041011 L71.0044924,80.3169905" transform="translate(77.132330, 106.721706) scale(-1, 1) rotate(-6.000000) translate(-77.132330, -106.721706)"/><path id="Shape-Copy" fill-rule="nonzero" stroke="#003483" stroke-width="3" d="M53.0773355,130.177766 L52.0434981,120.341461 C52.006491,119.989362 51.6571235,120.026082 51.5308609,119.799954 C45.8490427,115.616584 42.4349013,109.62419 41.172275,103.17954 L40.9197497,101.935836 C40.5409619,100.239876 40.4146992,98.543915 40.4146992,96.8479545 L40.4146992,77.1239335" transform="translate(46.746017, 103.650850) rotate(6.000000) translate(-46.746017, -103.650850)"/><path id="Shape-Copy-7" fill-rule="nonzero" stroke="#06297B" stroke-width="3" d="M69.269834,45.0709874 L87.2105661,101.289458 C97.4517691,119.56664 103.942851,129.221906 106.683811,130.255254 C109.424772,131.288602 113.633979,132.021854 119.311433,132.45501 L129.569902,132.445483 L129.569902,125.803765" transform="translate(99.419868, 88.762999) scale(-1, 1) translate(-99.419868, -88.762999)"/><path id="Shape-Copy-8" fill-rule="nonzero" stroke="#06297B" stroke-width="3" d="M15.7612344,212.996687 L34.0098215,217.955055 C34.2541947,218.130945 34.3132832,219.209808 34.1870872,221.191646 C34.0608912,223.173483 33.6544259,227.549974 32.9676914,234.321119 C28.0107221,235.092241 20.778103,235.477802 11.269834,235.477802 C1.76156506,235.477802 -1.73016596,229.636886 0.794640962,217.955055 L11.269834,159.803765 C11.8164638,153.141603 15.9708497,147.513225 22.0931027,145.445657 L50.269834,136.601063 L50.269834,125.803765"/><path id="Path-Copy" fill="#06297B" fill-rule="nonzero" d="M95.5013912,121.979748 L94.9351891,119.587788 C92.7836211,110.361657 91.7644574,100.793818 91.7644574,91.3398816 L91.7644574,83.594488 C91.7644574,67.875895 79.6477326,54.5492618 64.1337953,53.9797476 C63.7940741,53.9797476 63.3411124,53.9797476 63.0013912,53.9797476 C62.6616699,53.9797476 62.2087082,53.9797476 61.868987,53.9797476 C46.2418093,54.5492618 34.238325,67.9897978 34.238325,83.594488 L34.238325,91.2259788 C34.238325,100.793818 33.2191612,110.247754 31.0675932,119.473885 L30.5013912,121.865845 C32.8847208,122.632961 34.6457991,123.188148 35.7846261,123.531406 C36.2993998,123.686565 37.2078488,120.366552 37.4993227,119.848284 C37.7907966,119.330015 38.2308379,119.454832 38.3341828,119.789904 C38.4375277,120.124977 38.1539503,123.558319 39.6465165,124.65185 C47.5145804,130.416401 56.1911018,128.454954 61.9835684,128.465105 C69.6110442,128.478471 80.7836518,126.316685 95.5013912,121.979748 Z" transform="translate(63.001391, 91.379243) rotate(4.000000) translate(-63.001391, -91.379243)"/></g></g><path id="Shape" stroke="#06297B" stroke-width="3" d="M22.0657696,47.5725966 C26.0903512,80.4596779 30.792658,102.865623 36.1726899,114.790433 C40.5262399,124.763957 44.3239332,132.500479 47.5657696,138 C50.4043776,142.815476 55.727351,150.551448 63.5346899,161.207917 C67.6349721,187.726937 67.2063462,200.382547 67.2063462,200.382547 C67.2063462,200.382547 64.5307678,229.146356 62.0657696,242.700388 L133.076981,275.691309 C131.663585,261.32044 130.62043,251.760913 129.947517,247.012728 C129.274604,242.264542 128.415204,233.603152 127.369317,221.028557 M127.311552,220.244889 C127.103605,211.036415 127.841336,200.382765 129.314858,193.413774 C132.582899,177.957648 132.078445,175.19586 131.917027,177.304947 L139.5,214.54811" transform="translate(80.782885, 161.631953) scale(-1, 1) translate(-80.782885, -161.631953)"/></g><g id="Group-13" transform="translate(228.000000, 233.000000)"><path id="Path-104" fill="#0085FF" d="M36.4839092,133 L33.7536562,171.866444 C22.9288984,175.639736 16.6744752,174.279341 14.9903865,167.785259 C13.3062977,161.291177 20.4708053,149.696091 36.4839092,133 Z"/><path id="Path-30-Copy" fill="#0085FF" d="M92.75,59 L114.25,59 L114.25,73.8040535 L125,78 C122.793645,82.3297443 120.105917,85.8326933 116.936817,88.5088472 C113.767717,91.1850011 109.288778,92.682052 103.5,93 C98.4069762,92.682052 93.9294056,91.1850011 90.0672884,88.5088472 C86.2051712,85.8326933 83.8494084,82.6563525 83,78.9798246 L92.75,73.8040535 L92.75,59 Z"/><path id="Path-29-Copy" fill="#0085FF" d="M82,17.0909091 L125,17 L125,38.4300982 C124.35601,44.0476195 123.424141,48.0738422 122.204395,50.5087663 C120.984649,52.9436905 118.333184,56.070715 114.25,59.8898397 C109.533961,62.6299466 105.950628,64 103.5,64 C101.049372,64 97.4660391,62.6299466 92.75,59.8898397 C88.6041636,56.0964845 85.9149179,52.9694601 84.6822629,50.5087663 C83.4496079,48.0480726 82.5555203,44.0218499 82,38.4300982 L82,17.0909091 Z"/><path id="Path-Copy-11" fill-rule="nonzero" stroke="#003483" stroke-width="3" d="M124,74 C122.639004,83.1753555 113.877593,90 103.5,90 C93.1224066,90 84.4460581,83.0995261 83,74 L83,74"/><path id="Shape-Copy-9" fill-rule="nonzero" stroke="#06297B" stroke-width="3" d="M92,72 L92,60.3544044 C91.6212121,60.1282763 91.2424242,59.9021482 91.1161616,59.6760201 C85.4343434,55.4926508 84.020202,49.500257 82.7575758,43.0556069 C82.2525253,39.96519 82,37.8546613 82,36.724021 L82,18.9063755"/><path id="Path-6" fill="#004AFE" d="M114.25,59 C110.337705,60.9266952 105.226272,61.3781634 98.9157014,60.3544044 C92.6051309,59.3306454 97.9665637,62.6202285 115,70.2231538 L114.25,59 Z"/><path id="Path-100" fill="#FFF" d="M145.545389,76 C153.414777,79.6966479 158.281391,86.1966479 160.14523,95.5 C162.009069,104.803352 163.701305,110.4659 165.221938,112.487642 L148.664774,121.138812 L145.545389,76 Z"/><path id="Path-101" fill="#0085FF" d="M147.627573,119.283934 L165.221938,110.51656 C172.467831,134.870131 176.090778,150.136825 176.090778,156.316641 C176.090778,165.586365 174.861277,173.269408 170.041608,175.375615 C166.828495,176.779753 159.814626,172.368539 149,162.141971 L147.627573,119.283934 Z"/><path id="Combined-Shape" fill="#06297B" fill-rule="nonzero" d="M91.9855634,47.1570489 C84.6778447,45.9647512 81.8389223,43.9814317 79,44.4668985 L78,32.5788549 C78,26 78.8567743,20.9639729 80.5327165,17 C84.4059137,7.83903428 92.4465395,1.39166472 102.913346,1 C103.239342,1 103.674004,1 104,1 C104.325996,1 104.760658,1 105.086654,1 C119.973809,1.56113903 130,13.7558882 130,32.0340814 L129,44.4668985 C125.373955,44.3855099 122.273838,46.2803263 114.550643,47.3278288 C115.140804,39.1903702 111.457257,35.1216409 103.5,35.1216409 C95.5986054,35.1216409 91.7604599,39.1334436 91.9855634,47.1570489 Z"/><path id="Shape-Copy-10" fill-rule="nonzero" stroke="#06297B" stroke-width="3" d="M125,72 L125,60.2343234 C124.621212,60.0081953 124.116162,59.6760201 124.116162,59.6760201 C118.434343,55.4926508 117.020202,49.500257 115.757576,43.0556069 C115.252525,39.96519 115,37.8546613 115,36.724021 L115,17" transform="translate(120.000000, 44.500000) scale(-1, 1) translate(-120.000000, -44.500000)"/><path id="Shape-Copy-11" fill-rule="nonzero" stroke="#003483" stroke-width="3" d="M80,76 L92,70.9438669 L92,60"/><path id="Shape-Copy-12" fill-rule="nonzero" stroke="#06297B" stroke-width="3" d="M141.215628,160.5 C135.548577,171.779289 126.067073,175.829609 122.476151,175.302055 C115.290197,174.246344 113.284509,164.776527 116.459088,146.892604 L131.542198,93.2001411 C132.659919,87.2728333 139.209249,76 149.914046,75.6418919 L176.090778,70.7972973 L176.090778,60" transform="translate(145.545389, 117.673578) scale(-1, 1) translate(-145.545389, -117.673578)"/><path id="Path-102" stroke="#06297B" stroke-width="3" d="M165.221938,110.51656 L145.5,120.5"/><path id="Shape-Copy-13" fill-rule="nonzero" stroke="#06297B" stroke-width="3" d="M58.6530489,176.478329 C52.9859972,187.757618 45.5108723,189.868739 41.9199504,189.341185 C34.7339962,188.285474 32.7283084,178.815657 35.902887,160.931734 L50.9859972,107.239271 C52.1037186,101.311963 58.6530489,90.03913 69.357846,89.6810219 L95.5345773,84.8364273 L95.5345773,74.03913" transform="translate(64.989188, 131.726937) rotate(28.000000) translate(-64.989188, -131.726937)"/><path id="Path-96" fill="url(#linearGradient-7)" d="M46.7678573,69 L134.330889,69 C140.644778,69 145.878668,73.8926794 146.303673,80.1922481 L153.205934,182.5 L23.8623542,245.156553 L34.7941236,80.2064624 C35.2120123,73.9009168 40.4484795,69 46.7678573,69 Z"/><path id="Path-97-Copy-5" stroke="url(#linearGradient-8)" stroke-linecap="round" stroke-width="3" d="M48.4769859,200.5 L114.058813,200.5"/><path id="Path-97-Copy-6" stroke="url(#linearGradient-9)" stroke-linecap="round" stroke-width="3" d="M47.4769859,221.5 L71.5,221.5"/><path id="Path-97" stroke="url(#linearGradient-10)" stroke-linecap="round" stroke-width="3" d="M53.4769859,95.5 L126.5,95.5"/><path id="Path-97-Copy" stroke="url(#linearGradient-11)" stroke-linecap="round" stroke-width="3" d="M52.4769859,116.5 L127.5,116.5"/><path id="Path-97-Copy-2" stroke="url(#linearGradient-12)" stroke-linecap="round" stroke-width="3" d="M51.4769859,137.5 L128.5,137.5"/><path id="Path-97-Copy-3" stroke="url(#linearGradient-13)" stroke-linecap="round" stroke-width="3" d="M50.4769859,158.5 L129.5,158.5"/><path id="Path-97-Copy-4" stroke="url(#linearGradient-14)" stroke-linecap="round" stroke-width="3" d="M49.4769859,179.5 L130.5,179.5"/><path id="Path" stroke="#003483" stroke-width="3" d="M153.877253,181.518239 L7.5,252.5"/><path id="Rectangle" fill="#99DAFF" stroke="#003483" stroke-width="4" d="M101,2 L106,2 L106,-4.4408921e-16 L101,0 L101,2 Z"/><path id="Path-99" stroke="#06297B" stroke-width="4" d="M93.7636216,45.1091339 C96.826614,45.6302887 99.9209305,45.8908661 103.046571,45.8908661 C106.172211,45.8908661 109.374611,45.6302887 112.653769,45.1091339"/><polygon id="Path-103" stroke="#06297B" stroke-width="3" points="153.96 175.689 180.96 175.689 180.96 182.5 153.96 182.5"/><polygon id="Path-103-Copy" stroke="#06297B" stroke-width="3" points="0 175.689 27 175.689 27 182.5 0 182.5"/></g><rect id="Rectangle-Copy-12" width="240" height="42" x="193" y="485" fill="#CBF6FF" rx="4" transform="translate(313.000000, 506.000000) scale(-1, 1) translate(-313.000000, -506.000000)"/><rect id="Rectangle-Copy-12" width="237" height="39" x="193.5" y="483.5" stroke="url(#linearGradient-15)" stroke-width="3" rx="4" transform="translate(312.000000, 503.000000) scale(-1, 1) translate(-312.000000, -503.000000)"/><rect id="Rectangle-Copy-11" width="138" height="42" x="324" y="423" fill="#2DDAFF" rx="4" transform="translate(393.000000, 444.000000) scale(-1, 1) translate(-393.000000, -444.000000)"/><rect id="Rectangle-Copy-11" width="135" height="39" x="324.5" y="421.5" stroke="url(#linearGradient-16)" stroke-width="3" rx="4" transform="translate(392.000000, 441.000000) scale(-1, 1) translate(-392.000000, -441.000000)"/><circle id="Oval-Copy-7" cx="135" cy="131" r="8" fill="#FFF" stroke="#06297B" stroke-width="3"/><circle id="Oval-Copy-8" cx="151" cy="131" r="8" fill="#FFF" stroke="#06297B" stroke-width="3"/><circle id="Oval-Copy-9" cx="167" cy="131" r="8" fill="#FFF" stroke="#06297B" stroke-width="3"/><circle id="Oval-Copy-10" cx="236" cy="443" r="11" fill="#FFF" stroke="#06297B" stroke-width="3"/><circle id="Oval-Copy-11" cx="258" cy="443" r="11" fill="#FFF" stroke="#06297B" stroke-width="3"/><circle id="Oval-Copy-12" cx="280" cy="443" r="11" fill="#FFF" stroke="#06297B" stroke-width="3"/><path id="Path-54" stroke="url(#linearGradient-17)" stroke-linecap="round" stroke-width="3" d="M333,193.826049 C337.143054,197.942016 340.380032,200 342.710935,200 C345.041839,200 348.538194,197.942016 353.2,193.826049 C357.692461,189.942016 361.061807,188 363.308038,188 C365.554268,188 368.918256,189.942016 373.4,193.826049 C377.73505,197.942016 381.044028,200 383.326932,200 C385.609836,200 389.034192,197.942016 393.6,193.826049 C397.824135,189.942016 401.091519,188 403.402152,188 C405.712785,188 409.178734,189.942016 413.8,193.826049 C418.170712,197.942016 421.493063,200 423.767051,200 C426.04104,200 429.452023,197.942016 434,193.826049"/><path id="Path-54-Copy" stroke="url(#linearGradient-17)" stroke-linecap="round" stroke-width="3" d="M2,129.826049 C6.14305368,133.942016 9.38003214,136 11.7109354,136 C14.0418386,136 17.5381935,133.942016 22.2,129.826049 C26.6924613,125.942016 30.0618072,124 32.3080378,124 C34.5542685,124 37.9182559,125.942016 42.4,129.826049 C46.7350504,133.942016 50.0440276,136 52.3269317,136 C54.6098357,136 58.0341919,133.942016 62.6,129.826049 C66.8241351,125.942016 70.0915191,124 72.402152,124 C74.7127849,124 78.1787342,125.942016 82.8,129.826049 C87.1707123,133.942016 90.4930628,136 92.7670514,136 C95.0410399,136 98.4520228,133.942016 103,129.826049" transform="translate(52.500000, 130.000000) rotate(-90.000000) translate(-52.500000, -130.000000)"/><circle id="Oval-Copy-24" cx="393" cy="75" r="4" fill="#CBF6FF"/><circle id="Oval-Copy-29" cx="159" cy="489" r="4" fill="#CBF6FF"/><circle id="Oval-Copy-25" cx="448" cy="59" r="3" fill="#FFF"/><circle id="Oval-Copy-31" cx="464.5" cy="378.5" r="3.5" fill="#FFF"/><circle id="Oval-Copy-28" cx="49" cy="250" r="3" fill="#FFF"/><circle id="Oval-Copy-26" cx="403" cy="33" r="2" fill="#FFF"/><circle id="Oval-Copy-30" cx="97" cy="454" r="2" fill="#FFF"/><circle id="Oval-Copy-27" cx="177" cy="181" r="2" fill="#FFF"/><g id="Group-6" stroke="#CBF6FF" stroke-linecap="round" stroke-width="8" transform="translate(338.247423, 58.500000) rotate(-30.000000) translate(-338.247423, -58.500000) translate(282.247423, 24.000000)"><path id="Path-16" d="M-8.03216233,35.1743948 L119.538208,35.1743948" transform="translate(55.753023, 35.174395) rotate(30.000000) translate(-55.753023, -35.174395)"/><path id="Path-16-Copy" d="M22.9607621,52.6314458 L86.7029282,52.6314458" transform="translate(54.831845, 52.631446) rotate(30.000000) translate(-54.831845, -52.631446)"/><path id="Path-16-Copy-2" d="M23.7515783,13.7447007 L75.223655,13.7447007" transform="translate(49.487617, 13.744701) rotate(30.000000) translate(-49.487617, -13.744701)"/></g><path id="Path-4-Copy-5" stroke="#CBF6FF" stroke-linecap="round" stroke-width="8" d="M451,378.5 L371.531362,378.5"/><path id="Path-4-Copy-7" stroke="#CBF6FF" stroke-linecap="round" stroke-width="8" d="M222,488.5 L173,488.5"/><path id="Path-4-Copy-10" stroke="#CBF6FF" stroke-linecap="round" stroke-width="8" d="M280,472.5 L142.531362,472.5"/><path id="Path-4-Copy-6" stroke="#CBF6FF" stroke-linecap="round" stroke-width="8" d="M413,393.5 L379,393.5"/><path id="Path-4-Copy-9" stroke="#CBF6FF" stroke-linecap="round" stroke-width="8" d="M184,503.5 L150,503.5"/><circle id="Oval-Copy-21" cx="90.5" cy="164.5" r="1.5" fill="#FFF"/><circle id="Oval-Copy-21" cx="389.5" cy="273.5" r="1.5" fill="#FFF"/><circle id="Oval-Copy-22" cx="14.5" cy="392.5" r="1.5" fill="#FFF"/><circle id="Oval-Copy-21" cx="304.5" cy="223.5" r="1.5" fill="#FFF"/><path id="Path-4" stroke="#CBF6FF" stroke-linecap="round" stroke-width="8" d="M225,140.5 L200,140.5"/></g></g></g></svg>